<svg width="47" height="47" viewBox="0 0 47 47" fill="none" xmlns="http://www.w3.org/2000/svg">
<path opacity="0.4" d="M23.4246 42.8356C33.9785 42.8356 42.5342 34.28 42.5342 23.726C42.5342 13.1721 33.9785 4.61645 23.4246 4.61645C12.8707 4.61645 4.31503 13.1721 4.31503 23.726C4.31503 34.28 12.8707 42.8356 23.4246 42.8356Z" fill="black"/>
<path d="M17.0802 23.5541L20.2333 24.3376L18.4179 31.6756C17.9975 33.3955 18.8383 33.9689 20.2906 32.9561L30.1895 26.0957C31.3934 25.2548 31.2213 24.2802 29.7881 23.9171L26.635 23.1337L28.4505 15.7956C28.8709 14.0757 28.03 13.5024 26.5777 14.5153L16.679 21.3756C15.4751 22.2165 15.647 23.191 17.0802 23.5541Z" fill="black"/>
</svg>
