<svg width="123" height="42" viewBox="0 0 123 42" fill="none" xmlns="http://www.w3.org/2000/svg">
<path d="M42.1095 27V14.6855H43.9675V25.4006H49.5475V27H42.1095ZM55.4132 27.1864C54.5473 27.1864 53.7917 26.988 53.1463 26.5911C52.5009 26.1943 51.9998 25.6391 51.643 24.9255C51.2863 24.212 51.1079 23.3782 51.1079 22.4241C51.1079 21.4661 51.2863 20.6283 51.643 19.9107C51.9998 19.1932 52.5009 18.636 53.1463 18.2391C53.7917 17.8423 54.5473 17.6439 55.4132 17.6439C56.279 17.6439 57.0346 17.8423 57.68 18.2391C58.3254 18.636 58.8265 19.1932 59.1833 19.9107C59.54 20.6283 59.7184 21.4661 59.7184 22.4241C59.7184 23.3782 59.54 24.212 59.1833 24.9255C58.8265 25.6391 58.3254 26.1943 57.68 26.5911C57.0346 26.988 56.279 27.1864 55.4132 27.1864ZM55.4192 25.6772C55.9804 25.6772 56.4454 25.5288 56.8142 25.2322C57.183 24.9356 57.4555 24.5407 57.6319 24.0476C57.8123 23.5546 57.9025 23.0114 57.9025 22.4181C57.9025 21.8289 57.8123 21.2877 57.6319 20.7946C57.4555 20.2976 57.183 19.8987 56.8142 19.5981C56.4454 19.2974 55.9804 19.1471 55.4192 19.1471C54.8539 19.1471 54.3849 19.2974 54.0121 19.5981C53.6433 19.8987 53.3687 20.2976 53.1884 20.7946C53.012 21.2877 52.9238 21.8289 52.9238 22.4181C52.9238 23.0114 53.012 23.5546 53.1884 24.0476C53.3687 24.5407 53.6433 24.9356 54.0121 25.2322C54.3849 25.5288 54.8539 25.6772 55.4192 25.6772ZM65.5976 30.6559C64.864 30.6559 64.2326 30.5597 63.7035 30.3673C63.1784 30.1748 62.7494 29.9203 62.4167 29.6036C62.084 29.2869 61.8355 28.9402 61.6711 28.5634L63.2165 27.926C63.3247 28.1024 63.469 28.2888 63.6494 28.4852C63.8338 28.6856 64.0823 28.856 64.395 28.9963C64.7117 29.1366 65.1185 29.2068 65.6156 29.2068C66.2971 29.2068 66.8603 29.0404 67.3053 28.7077C67.7502 28.379 67.9727 27.8538 67.9727 27.1323V25.3164H67.8584C67.7502 25.5128 67.5939 25.7313 67.3894 25.9718C67.189 26.2123 66.9124 26.4208 66.5597 26.5971C66.2069 26.7735 65.7479 26.8617 65.1827 26.8617C64.4531 26.8617 63.7957 26.6913 63.2104 26.3506C62.6292 26.0059 62.1682 25.4988 61.8275 24.8293C61.4907 24.1559 61.3224 23.3281 61.3224 22.346C61.3224 21.3639 61.4887 20.5221 61.8214 19.8205C62.1582 19.119 62.6192 18.5819 63.2044 18.2091C63.7897 17.8323 64.4531 17.6439 65.1947 17.6439C65.7679 17.6439 66.2309 17.7401 66.5837 17.9325C66.9365 18.1209 67.2111 18.3414 67.4075 18.5939C67.6079 18.8464 67.7622 19.0689 67.8705 19.2613H68.0028V17.7641H69.7646V27.2044C69.7646 27.9981 69.5802 28.6496 69.2114 29.1586C68.8426 29.6677 68.3435 30.0446 67.7141 30.2891C67.0888 30.5336 66.3833 30.6559 65.5976 30.6559ZM65.5795 25.3705C66.0967 25.3705 66.5336 25.2502 66.8904 25.0097C67.2511 24.7652 67.5237 24.4164 67.7081 23.9635C67.8965 23.5065 67.9907 22.9593 67.9907 22.3219C67.9907 21.7006 67.8985 21.1534 67.7141 20.6804C67.5297 20.2074 67.2592 19.8386 66.9024 19.574C66.5456 19.3054 66.1047 19.1711 65.5795 19.1711C65.0384 19.1711 64.5874 19.3114 64.2266 19.592C63.8659 19.8686 63.5933 20.2455 63.4089 20.7225C63.2285 21.1995 63.1383 21.7327 63.1383 22.3219C63.1383 22.9272 63.2305 23.4584 63.4149 23.9154C63.5993 24.3723 63.8719 24.7291 64.2326 24.9857C64.5974 25.2422 65.0464 25.3705 65.5795 25.3705ZM76.0661 27.1864C75.2003 27.1864 74.4446 26.988 73.7992 26.5911C73.1538 26.1943 72.6528 25.6391 72.296 24.9255C71.9392 24.212 71.7608 23.3782 71.7608 22.4241C71.7608 21.4661 71.9392 20.6283 72.296 19.9107C72.6528 19.1932 73.1538 18.636 73.7992 18.2391C74.4446 17.8423 75.2003 17.6439 76.0661 17.6439C76.932 17.6439 77.6876 17.8423 78.333 18.2391C78.9784 18.636 79.4795 19.1932 79.8362 19.9107C80.193 20.6283 80.3714 21.4661 80.3714 22.4241C80.3714 23.3782 80.193 24.212 79.8362 24.9255C79.4795 25.6391 78.9784 26.1943 78.333 26.5911C77.6876 26.988 76.932 27.1864 76.0661 27.1864ZM76.0721 25.6772C76.6333 25.6772 77.0983 25.5288 77.4671 25.2322C77.8359 24.9356 78.1085 24.5407 78.2849 24.0476C78.4653 23.5546 78.5555 23.0114 78.5555 22.4181C78.5555 21.8289 78.4653 21.2877 78.2849 20.7946C78.1085 20.2976 77.8359 19.8987 77.4671 19.5981C77.0983 19.2974 76.6333 19.1471 76.0721 19.1471C75.5069 19.1471 75.0379 19.2974 74.6651 19.5981C74.2963 19.8987 74.0217 20.2976 73.8413 20.7946C73.6649 21.2877 73.5768 21.8289 73.5768 22.4181C73.5768 23.0114 73.6649 23.5546 73.8413 24.0476C74.0217 24.5407 74.2963 24.9356 74.6651 25.2322C75.0379 25.5288 75.5069 25.6772 76.0721 25.6772ZM88.6572 21.5162V27H86.8594V14.6855H88.6332V19.2673H88.7474C88.9639 18.7703 89.2946 18.3754 89.7396 18.0828C90.1845 17.7902 90.7658 17.6439 91.4833 17.6439C92.1167 17.6439 92.6699 17.7741 93.1429 18.0347C93.6199 18.2953 93.9887 18.6841 94.2493 19.2012C94.5138 19.7143 94.6461 20.3557 94.6461 21.1254V27H92.8483V21.3418C92.8483 20.6644 92.6739 20.1392 92.3251 19.7664C91.9764 19.3896 91.4913 19.2012 90.87 19.2012C90.4451 19.2012 90.0643 19.2914 89.7275 19.4718C89.3948 19.6522 89.1323 19.9167 88.9398 20.2655C88.7514 20.6102 88.6572 21.0271 88.6572 21.5162ZM101.026 27.1864C100.116 27.1864 99.3322 26.992 98.6748 26.6031C98.0214 26.2103 97.5163 25.6591 97.1595 24.9496C96.8068 24.236 96.6304 23.4002 96.6304 22.4422C96.6304 21.4961 96.8068 20.6624 97.1595 19.9408C97.5163 19.2192 98.0134 18.656 98.6507 18.2512C99.2921 17.8463 100.042 17.6439 100.9 17.6439C101.421 17.6439 101.926 17.73 102.415 17.9024C102.904 18.0748 103.343 18.3454 103.732 18.7142C104.121 19.083 104.427 19.562 104.652 20.1513C104.876 20.7365 104.988 21.448 104.988 22.2858V22.9232H97.6466V21.5763H103.227C103.227 21.1033 103.13 20.6844 102.938 20.3196C102.746 19.9508 102.475 19.6602 102.126 19.4477C101.781 19.2353 101.377 19.1291 100.912 19.1291C100.407 19.1291 99.9656 19.2533 99.5888 19.5019C99.216 19.7464 98.9273 20.0671 98.7229 20.4639C98.5225 20.8568 98.4223 21.2837 98.4223 21.7447V22.7969C98.4223 23.4143 98.5305 23.9394 98.747 24.3723C98.9674 24.8053 99.2741 25.136 99.6669 25.3645C100.06 25.589 100.519 25.7012 101.044 25.7012C101.385 25.7012 101.695 25.6531 101.976 25.5569C102.257 25.4567 102.499 25.3084 102.703 25.1119C102.908 24.9155 103.064 24.673 103.172 24.3844L104.874 24.691C104.738 25.1921 104.493 25.6311 104.141 26.0079C103.792 26.3807 103.353 26.6713 102.824 26.8797C102.299 27.0842 101.699 27.1864 101.026 27.1864ZM106.983 27V17.7641H108.721V19.2313H108.817C108.986 18.7342 109.282 18.3434 109.707 18.0587C110.136 17.7701 110.621 17.6258 111.162 17.6258C111.274 17.6258 111.407 17.6298 111.559 17.6378C111.715 17.6459 111.838 17.6559 111.926 17.6679V19.3876C111.854 19.3676 111.725 19.3455 111.541 19.3215C111.357 19.2934 111.172 19.2794 110.988 19.2794C110.563 19.2794 110.184 19.3696 109.851 19.55C109.523 19.7263 109.262 19.9729 109.07 20.2896C108.877 20.6022 108.781 20.959 108.781 21.3599V27H106.983ZM117.132 27.1864C116.222 27.1864 115.438 26.992 114.78 26.6031C114.127 26.2103 113.622 25.6591 113.265 24.9496C112.912 24.236 112.736 23.4002 112.736 22.4422C112.736 21.4961 112.912 20.6624 113.265 19.9408C113.622 19.2192 114.119 18.656 114.756 18.2512C115.398 17.8463 116.147 17.6439 117.005 17.6439C117.526 17.6439 118.031 17.73 118.521 17.9024C119.01 18.0748 119.449 18.3454 119.837 18.7142C120.226 19.083 120.533 19.562 120.757 20.1513C120.982 20.7365 121.094 21.448 121.094 22.2858V22.9232H113.752V21.5763H119.332C119.332 21.1033 119.236 20.6844 119.044 20.3196C118.851 19.9508 118.581 19.6602 118.232 19.4477C117.887 19.2353 117.482 19.1291 117.017 19.1291C116.512 19.1291 116.071 19.2533 115.694 19.5019C115.322 19.7464 115.033 20.0671 114.829 20.4639C114.628 20.8568 114.528 21.2837 114.528 21.7447V22.7969C114.528 23.4143 114.636 23.9394 114.853 24.3723C115.073 24.8053 115.38 25.136 115.773 25.3645C116.165 25.589 116.624 25.7012 117.15 25.7012C117.49 25.7012 117.801 25.6531 118.082 25.5569C118.362 25.4567 118.605 25.3084 118.809 25.1119C119.014 24.9155 119.17 24.673 119.278 24.3844L120.98 24.691C120.844 25.1921 120.599 25.6311 120.246 26.0079C119.897 26.3807 119.459 26.6713 118.929 26.8797C118.404 27.0842 117.805 27.1864 117.132 27.1864Z" fill="black"/>
<path opacity="0.4" d="M7.11396 12.9393L21.2052 8.23699C27.5322 6.12799 30.9691 9.5805 28.8757 15.9075L24.1734 29.9987C21.0177 39.4814 15.8312 39.4814 12.6755 29.9987L11.2851 25.812L7.09834 24.4216C-2.36872 21.2815 -2.36872 16.1106 7.11396 12.9393Z" fill="#20DC49"/>
<path d="M14.9407 21.7971L20.8927 15.8294L14.9407 21.7971Z" fill="#20DC49"/>
<path d="M14.9408 22.9688C14.644 22.9688 14.3472 22.8594 14.1129 22.6251C13.6598 22.172 13.6598 21.4222 14.1129 20.9691L20.0493 15.0014C20.5023 14.5484 21.2522 14.5484 21.7052 15.0014C22.1583 15.4545 22.1583 16.2043 21.7052 16.6574L15.7688 22.6251C15.5345 22.8438 15.2377 22.9688 14.9408 22.9688Z" fill="#20DC49"/>
</svg>
