<svg width="26" height="27" viewBox="0 0 26 27" fill="none" xmlns="http://www.w3.org/2000/svg">
<path d="M16.5641 12.8957C16.2647 12.8957 15.9652 12.7458 15.7905 12.4834L11.7977 6.51176C11.6604 6.29938 11.6105 6.04952 11.6604 5.81215C11.7103 5.57479 11.8476 5.3499 12.0597 5.21247L19.1221 0.477592C19.6711 0.1028 20.3324 -0.0221153 20.9812 0.102815C21.6301 0.227746 22.1916 0.602533 22.5659 1.15223L24.8369 4.53784C25.598 5.67471 25.2985 7.22386 24.1506 7.98594L17.1007 12.7208C16.926 12.8457 16.7513 12.8957 16.5641 12.8957ZM13.8814 6.24942L16.8262 10.6595L23.1024 6.44927C23.3894 6.26188 23.4643 5.8746 23.2647 5.59976L20.9937 2.21415C20.9064 2.07672 20.7691 1.98928 20.6069 1.9518C20.4447 1.91432 20.2825 1.95177 20.1452 2.03922L13.8814 6.24942Z" fill="white"/>
<path d="M10.2132 16.2939C9.91372 16.2939 9.61425 16.144 9.43956 15.8817L6.24525 11.1092C5.95826 10.6845 6.07056 10.0973 6.50728 9.80994L12.4717 5.81214C12.6838 5.67472 12.9333 5.62472 13.1704 5.6747C13.42 5.72467 13.6321 5.8621 13.7693 6.07449L16.9637 10.8469C17.2506 11.2717 17.1383 11.8589 16.7016 12.1462L10.7372 16.144C10.575 16.2439 10.3879 16.2939 10.2132 16.2939ZM8.31656 10.8469L10.4627 14.0577L14.8674 11.1092L12.7212 7.88602L8.31656 10.8469Z" fill="white"/>
<path d="M4.39819 19.5172C3.69944 19.5172 3.00069 19.1799 2.57645 18.5428L1.16648 16.4439C0.842055 15.9567 0.729753 15.382 0.842052 14.8073C0.954352 14.2326 1.27877 13.7454 1.7654 13.4206L6.69409 10.1224C7.11833 9.83507 7.70479 9.94753 7.99177 10.3848L10.7868 14.5575C11.0738 14.9822 10.9615 15.5694 10.5247 15.8568L5.59605 19.1549C5.2342 19.3923 4.80996 19.5172 4.39819 19.5172ZM6.95612 12.1838L2.81353 14.9573C2.67628 15.0572 2.62636 15.2446 2.72619 15.3945L4.13616 17.4934C4.23598 17.6308 4.42315 17.6807 4.57288 17.5808L8.71547 14.8073L6.95612 12.1838Z" fill="white"/>
<path d="M7.24353 26.9256C7.11875 26.9256 6.9815 26.9006 6.85672 26.8381C6.38257 26.6257 6.18292 26.0635 6.39504 25.6013L11.9975 13.358C12.2097 12.8833 12.7712 12.6833 13.2328 12.8957C13.707 13.1081 13.9066 13.6703 13.6945 14.1326L8.09201 26.3759C7.9298 26.7257 7.5929 26.9256 7.24353 26.9256Z" fill="white"/>
<path d="M18.3239 26.9255C17.962 26.9255 17.6251 26.7256 17.4754 26.3758L11.9353 14.1325C11.7232 13.6578 11.9353 13.1081 12.397 12.8957C12.8586 12.6833 13.4201 12.8957 13.6323 13.358L19.1724 25.6012C19.3845 26.076 19.1724 26.6257 18.7107 26.8381C18.5859 26.9005 18.4611 26.9255 18.3239 26.9255Z" fill="white"/>
</svg>
